<?xml version="1.0" standalone="no"?>
<!DOCTYPE svg PUBLIC "-//W3C//DTD SVG 20010904//EN"
 "http://www.w3.org/TR/2001/REC-SVG-20010904/DTD/svg10.dtd">
<svg version="1.0" xmlns="http://www.w3.org/2000/svg"
 width="484.000000pt" height="458.000000pt" viewBox="0 0 484.000000 458.000000"
 preserveAspectRatio="xMidYMid meet">

<g transform="translate(0.000000,458.000000) scale(0.100000,-0.100000)"
fill="#000000" stroke="none">
<path d="M2152 3615 c-173 -31 -352 -136 -462 -269 -43 -51 -104 -145 -99
-150 2 -2 17 -10 34 -19 l30 -15 39 62 c102 157 271 273 456 312 98 21 498 19
593 -2 177 -40 338 -150 440 -302 20 -29 39 -61 42 -72 6 -19 8 -19 38 -4 18
9 33 18 35 19 8 7 -40 86 -92 152 -118 151 -292 254 -485 288 -107 19 -465 19
-569 0z"/>
<path d="M2333 3275 c-61 -18 -125 -59 -162 -100 -37 -42 -71 -106 -71 -134 0
-37 -11 -51 -42 -51 -116 0 -227 -104 -228 -214 0 -90 56 -182 134 -217 45
-20 120 -25 160 -9 26 9 26 9 26 -40 0 -60 -3 -59 143 -29 80 16 125 20 212
16 106 -4 218 -24 211 -36 -2 -3 16 -4 41 -2 l45 3 -4 48 -3 48 47 5 c63 8
119 38 160 87 90 104 76 293 -28 378 -49 41 -94 54 -164 50 l-55 -3 -26 56
c-32 67 -91 120 -160 142 -61 20 -177 21 -236 2z m242 -69 c58 -26 106 -71
125 -116 12 -28 11 -37 -8 -76 -29 -60 -28 -77 3 -32 45 66 148 76 225 23 51
-35 78 -79 92 -149 22 -104 -32 -205 -126 -236 -42 -13 -183 -7 -199 9 -8 8
-7 25 2 59 8 26 16 63 18 82 l3 35 -14 -41 c-58 -177 -240 -160 -290 27 -13
46 -15 49 -15 21 -1 -18 8 -60 19 -93 11 -33 18 -64 15 -70 -9 -14 -88 -11
-128 6 -52 21 -107 73 -128 120 -12 25 -19 33 -19 20 0 -29 32 -94 64 -132 23
-28 25 -34 12 -39 -9 -3 -22 -4 -29 -1 -7 3 -31 -6 -53 -19 -135 -82 -295 57
-248 216 22 76 82 120 161 120 45 -1 49 -3 73 -40 30 -49 44 -52 24 -5 -18 44
-18 133 0 176 8 19 32 50 53 70 99 95 244 120 368 65z m88 -617 c42 -6 80 -16
84 -22 4 -6 0 -8 -9 -5 -9 4 -37 9 -64 12 -48 5 -47 5 14 -11 34 -9 62 -20 62
-24 0 -4 -15 -4 -32 1 -18 5 -58 11 -88 14 -47 4 -42 2 28 -13 45 -10 86 -22
90 -26 4 -4 -4 -5 -18 -1 -124 33 -304 41 -442 21 l-33 -5 35 15 35 14 -40 -6
c-22 -3 -50 -10 -62 -14 -17 -6 -23 -5 -23 5 0 8 29 19 83 29 76 15 78 16 22
11 -32 -2 -71 -7 -85 -10 -21 -4 -22 -4 -7 6 40 25 299 30 450 9z m-416 -65
c-3 -3 -12 -4 -19 -1 -8 3 -5 6 6 6 11 1 17 -2 13 -5z"/>
<path d="M2321 3183 c-46 -23 -100 -78 -117 -120 -20 -47 -20 -127 0 -158 26
-40 35 -29 20 22 -30 99 19 201 122 253 21 10 32 19 24 19 -8 0 -30 -7 -49
-16z"/>
<path d="M2762 2990 c-43 -27 -83 -120 -52 -120 6 0 10 9 10 21 0 65 76 117
142 98 22 -6 29 -6 21 2 -21 21 -86 21 -121 -1z"/>
<path d="M1988 2870 c-63 -52 -86 -155 -41 -191 14 -12 15 -11 8 10 -21 68 1
141 57 185 18 14 28 26 23 26 -6 0 -27 -13 -47 -30z"/>
<path d="M1443 3090 c-92 -56 -159 -267 -133 -418 15 -85 41 -135 85 -162 20
-12 43 -33 52 -47 18 -27 17 -58 -12 -678 -8 -170 -15 -342 -15 -381 0 -66 2
-72 25 -82 38 -17 90 -15 114 6 21 17 21 19 11 257 -5 132 -17 374 -25 537
-14 263 -14 301 -1 333 8 19 25 39 38 44 63 24 101 101 106 217 7 158 -51 323
-132 374 -42 25 -72 25 -113 0z"/>
<path d="M3261 3067 l-24 -11 6 -216 c4 -118 14 -354 23 -525 8 -170 13 -319
10 -331 -3 -12 -22 -41 -42 -65 l-36 -43 6 -221 c8 -256 13 -308 29 -302 9 3
11 54 8 194 -3 134 0 192 8 197 7 5 11 -5 12 -31 13 -337 15 -367 27 -371 9
-3 12 41 12 197 0 122 4 202 10 206 7 4 10 -61 10 -187 0 -187 6 -228 29 -214
7 5 11 70 11 202 0 123 4 194 10 194 6 0 10 -72 10 -195 0 -167 2 -195 15
-195 9 0 15 9 15 23 0 12 5 127 10 255 11 252 12 248 -43 312 l-30 34 7 166
c3 91 13 305 21 475 21 440 21 439 -10 453 -32 15 -72 14 -104 -1z"/>
<path d="M2556 2434 c-24 -24 -20 -53 9 -60 26 -7 55 9 55 31 0 12 -31 45 -43
45 -3 0 -13 -7 -21 -16z"/>
<path d="M2365 2406 c-11 -8 -17 -17 -14 -21 9 -9 69 8 72 20 4 16 -36 17 -58
1z"/>
<path d="M2429 2341 c-42 -9 -85 -37 -126 -84 -37 -43 -87 -64 -108 -47 -20
17 -20 51 0 44 16 -7 21 11 6 20 -15 10 -40 -4 -46 -25 -4 -11 0 -31 9 -44 20
-30 97 -45 123 -24 14 12 16 12 9 -1 -4 -9 -2 -8 7 2 8 10 17 15 20 11 8 -8
97 26 97 37 0 7 53 30 70 30 3 0 17 -10 29 -21 36 -34 158 -71 207 -64 48 7
77 33 72 66 -4 29 -33 48 -50 31 -9 -9 -9 -15 0 -24 9 -9 12 -9 12 0 0 7 5 12
10 12 18 0 11 -39 -9 -50 -26 -14 -50 -4 -88 38 -18 19 -41 40 -51 46 -64 37
-81 44 -117 49 -22 3 -56 2 -76 -2z"/>
<path d="M2342 1936 c-37 -43 -47 -72 -32 -91 14 -17 56 -20 65 -5 9 15 25 12
25 -5 0 -8 4 -15 9 -15 5 0 18 -3 28 -7 16 -6 16 -5 4 10 -13 16 -12 34 4 99
5 19 1 27 -20 36 -39 18 -50 15 -83 -22z m58 -7 c0 -6 -13 -27 -30 -46 -35
-40 -42 -18 -8 27 22 31 38 38 38 19z"/>
<path d="M2626 1937 c-13 -73 14 -121 62 -113 17 2 22 -2 22 -18 0 -24 -34
-85 -58 -104 -15 -12 -13 -13 13 -10 57 6 91 97 83 223 -2 38 -7 51 -20 53
-14 3 -18 -3 -18 -28 0 -37 -25 -100 -39 -100 -7 0 -11 24 -11 59 0 41 -4 60
-14 64 -10 4 -16 -4 -20 -26z"/>
<path d="M2157 1943 c-8 -10 -18 -30 -22 -44 -5 -21 -1 -31 21 -48 29 -23 59
-26 100 -11 43 17 16 30 -33 17 -33 -8 -46 -8 -55 1 -9 9 -8 12 6 12 24 0 76
31 76 46 0 17 -34 44 -57 44 -11 0 -27 -8 -36 -17z m63 -10 c0 -14 -15 -29
-32 -36 -22 -8 -23 1 -1 25 17 18 33 24 33 11z"/>
<path d="M2518 1949 c-25 -14 -22 -30 9 -55 24 -19 26 -24 14 -38 -17 -20 -31
-21 -31 -1 0 17 -9 19 -30 5 -11 -7 -12 -12 -3 -21 12 -12 75 -15 92 -4 14 8
14 42 0 50 -6 5 -4 11 6 19 25 18 15 50 -15 53 -14 2 -33 -2 -42 -8z m33 -36
c-8 -15 -10 -15 -11 -2 0 17 10 32 18 25 2 -3 -1 -13 -7 -23z"/>
<path d="M2600 1700 c0 -6 7 -10 15 -10 8 0 15 2 15 4 0 2 -7 6 -15 10 -8 3
-15 1 -15 -4z"/>
<path d="M2821 1674 c-35 -44 -61 -131 -67 -222 -5 -91 6 -134 36 -140 13 -2
14 13 12 92 l-4 94 56 7 c31 4 56 11 56 16 0 13 -45 22 -69 14 -15 -5 -21 -2
-21 10 0 37 50 125 71 125 4 0 14 -12 21 -26 15 -31 32 -33 36 -5 4 23 -46 61
-81 61 -16 0 -34 -10 -46 -26z"/>
<path d="M2286 1548 c-4 -79 -8 -158 -9 -177 -1 -22 4 -37 15 -44 23 -15 25
-11 31 56 4 49 10 64 38 93 30 31 34 33 40 16 4 -11 4 -50 -1 -88 -9 -72 -2
-94 29 -94 10 0 16 9 17 23 8 152 7 160 -17 180 -15 12 -34 17 -56 15 l-33 -4
0 71 c0 69 -10 95 -35 95 -8 0 -14 -46 -19 -142z"/>
<path d="M2112 1663 c-54 -38 -132 -196 -132 -269 0 -38 45 -74 91 -74 41 0
149 36 149 50 0 19 -45 16 -96 -7 -68 -31 -88 -28 -92 15 -10 99 127 307 172
262 5 -5 17 -10 26 -10 10 1 5 9 -15 25 -34 28 -70 31 -103 8z"/>
<path d="M2553 1523 c-54 -26 -78 -111 -43 -155 31 -40 81 -53 146 -39 61 14
73 25 45 40 -14 8 -29 7 -55 -4 -50 -21 -93 -19 -105 4 -10 17 -7 19 24 18 68
-2 128 72 91 112 -29 32 -68 41 -103 24z m77 -34 c0 -16 -56 -69 -74 -69 -23
0 -20 14 10 49 25 30 64 42 64 20z"/>
<path d="M1622 1231 l-33 -17 51 -77 c112 -167 303 -296 497 -333 106 -20 515
-20 614 1 145 31 260 91 375 198 71 67 165 192 168 224 1 12 -9 17 -35 19 -35
3 -39 0 -73 -55 -42 -70 -161 -184 -238 -229 -72 -43 -177 -79 -264 -92 -88
-12 -399 -13 -486 0 -206 30 -402 156 -508 328 -17 29 -32 52 -33 52 -1 -1
-17 -9 -35 -19z"/>
</g>
</svg>
